<?xml version="1.0" standalone="no"?>
<!DOCTYPE svg PUBLIC "-//W3C//DTD SVG 20010904//EN"
 "http://www.w3.org/TR/2001/REC-SVG-20010904/DTD/svg10.dtd">
<svg version="1.0" xmlns="http://www.w3.org/2000/svg"
 width="200.000000pt" height="200.000000pt" viewBox="0 0 200.000000 200.000000"
 preserveAspectRatio="xMidYMid meet">
<metadata>
Created by potrace 1.14, written by Peter Selinger 2001-2017
</metadata>
<g transform="translate(0.000000,200.000000) scale(0.100000,-0.100000)"
fill="#000000" stroke="none">
<path d="M988 1792 c-27 -3 -81 -46 -89 -70 -3 -9 -15 -7 -47 8 -40 19 -126
30 -139 17 -3 -4 7 -17 23 -31 16 -13 37 -38 48 -56 l18 -32 -23 7 c-13 5 -42
7 -63 7 -61 -3 -120 -51 -63 -52 12 -1 32 -6 45 -13 22 -13 22 -14 -24 -37
l-47 -23 -19 27 c-11 14 -41 39 -66 54 -40 23 -58 27 -124 27 -62 0 -82 -4
-105 -21 -94 -70 -84 -208 24 -341 23 -29 38 -55 33 -58 -22 -14 -43 -73 -46
-130 -2 -33 -3 -63 -4 -66 0 -3 -25 -34 -56 -70 -93 -106 -173 -236 -157 -253
3 -3 23 6 44 20 44 27 44 28 25 -43 -8 -28 -11 -54 -9 -57 3 -3 23 8 43 24 45
35 55 37 57 9 1 -11 10 -37 20 -57 19 -37 19 -55 -1 -157 -3 -16 -8 -43 -12
-60 -3 -16 -17 -88 -31 -160 -14 -72 -27 -141 -29 -155 -3 -14 -7 -31 -9 -37
-3 -10 170 -13 845 -13 l849 0 -10 33 c-6 17 -19 60 -30 95 -10 34 -28 91 -39
127 -11 36 -29 94 -40 130 -62 201 -61 198 -49 242 6 23 9 50 5 59 -4 12 9 8
49 -15 61 -35 65 -31 40 39 -8 24 -14 45 -12 47 2 2 23 -4 47 -12 24 -8 45
-13 48 -11 8 9 -63 102 -131 172 -91 94 -105 118 -108 184 -2 47 -28 124 -48
140 -31 25 -31 38 -2 82 86 128 94 264 18 330 -45 40 -134 43 -213 9 -46 -21
-114 -84 -114 -107 0 -17 -1 -17 -36 1 -16 8 -37 15 -46 15 -30 0 -20 26 17
46 19 10 35 22 35 26 0 14 -43 30 -71 26 -62 -9 29 44 96 57 11 2 22 4 24 4 2
1 -2 7 -8 15 -21 25 -99 56 -141 56 -39 0 -150 -35 -150 -48 0 -4 -9 -13 -20
-19 -17 -11 -19 -10 -14 5 3 9 11 27 17 39 12 27 10 29 -25 25z"/>
</g>
</svg>
